<?xml version="1.0" encoding="UTF-8" standalone="no"?>
<!DOCTYPE svg PUBLIC "-//W3C//DTD SVG 1.1//EN" "http://www.w3.org/Graphics/SVG/1.1/DTD/svg11.dtd">
<svg xmlns="http://www.w3.org/2000/svg" version="1.1" viewBox="0.00 0.00 1203.00 963.00">
<g stroke-width="3.20" fill="none" stroke-linecap="butt">
<path stroke="#201f1f" vector-effect="non-scaling-stroke" d="
  M 398.27 379.49
  L 395.03 378.94"
/>
<path stroke="#201f1f" vector-effect="non-scaling-stroke" d="
  M 403.93 811.92
  L 407.78 813.21"
/>
<path stroke="#201f1f" vector-effect="non-scaling-stroke" d="
  M 424.59 803.55
  Q 423.57 802.00 422.27 801.17"
/>
<path stroke="#201f1f" vector-effect="non-scaling-stroke" d="
  M 640.29 843.84
  L 640.04 847.27"
/>
</g>
<path fill="#000000" d="
  M 824.40 251.42
  C 843.50 277.14 859.46 304.67 865.56 335.45
  C 870.08 358.32 869.50 383.80 868.55 408.43
  Q 868.07 420.80 868.09 439.57
  C 868.15 496.70 868.27 538.32 865.87 588.84
  Q 861.84 673.49 859.59 773.00
  Q 859.43 780.14 858.37 791.90
  Q 857.33 803.56 855.55 810.61
  Q 848.64 837.91 826.21 855.44
  Q 819.47 860.70 810.27 865.77
  Q 789.71 877.11 765.68 884.41
  Q 733.23 894.27 698.70 899.15
  Q 618.19 910.53 536.74 904.37
  C 520.76 903.17 504.27 901.66 488.58 898.14
  C 458.47 891.41 429.49 880.42 402.43 866.35
  C 387.69 858.69 372.28 848.23 362.78 835.17
  C 353.85 822.89 350.65 806.46 349.07 791.74
  Q 345.43 757.84 345.31 756.76
  Q 343.39 740.18 341.92 721.73
  C 335.97 647.30 335.63 572.95 335.94 496.88
  C 336.07 464.14 338.68 433.39 338.12 402.07
  C 337.66 376.53 336.80 355.40 339.94 332.53
  C 344.53 299.06 363.90 275.55 378.43 243.91
  A 0.70 0.69 -55.3 0 0 378.29 243.13
  Q 376.47 241.33 374.92 239.84
  C 370.81 235.89 369.56 229.62 369.04 223.75
  Q 368.17 213.80 368.10 200.01
  Q 368.07 195.35 366.72 191.77
  A 2.00 1.99 -17.1 0 0 364.38 190.54
  C 358.01 192.11 358.73 198.34 360.25 203.26
  Q 360.54 204.20 365.11 220.31
  Q 368.61 232.63 366.06 244.06
  C 362.68 259.24 350.02 272.10 335.76 277.45
  C 331.88 278.91 325.65 279.50 325.56 273.80
  Q 325.54 271.90 328.32 267.06
  C 333.17 258.65 341.04 247.54 344.40 236.61
  C 345.18 234.05 344.96 228.23 344.58 225.12
  C 342.41 207.28 332.32 181.50 356.59 173.38
  Q 363.31 171.14 370.03 170.39
  A 0.66 0.65 -3.5 0 0 370.61 169.74
  Q 370.73 155.21 369.47 138.28
  Q 369.10 133.33 370.28 126.02
  C 372.24 113.78 382.39 108.83 393.20 105.94
  C 413.18 100.58 434.59 98.36 455.50 97.49
  Q 515.79 94.98 547.93 93.62
  Q 597.44 91.53 625.60 91.86
  C 669.71 92.37 712.65 94.11 755.31 99.67
  Q 766.77 101.16 784.28 104.73
  Q 801.68 108.28 814.17 114.84
  C 835.59 126.09 825.78 153.94 828.71 170.04
  A 1.48 1.42 13.9 0 0 829.29 170.96
  C 834.51 174.76 840.11 179.97 835.42 186.37
  Q 834.72 187.32 831.68 189.45
  A 0.90 0.89 68.2 0 0 831.31 190.33
  L 833.03 201.19
  A 0.68 0.65 19.3 0 0 833.22 201.57
  L 837.24 205.59
  A 1.11 1.07 21.1 0 1 837.56 206.28
  Q 838.83 221.25 835.83 235.44
  C 834.28 242.78 830.93 246.36 824.56 250.53
  A 0.62 0.62 0.0 0 0 824.40 251.42
  Z
  M 379.60 120.98
  Q 390.68 125.68 401.81 128.43
  A 0.30 0.29 84.3 0 0 402.14 128.02
  Q 398.37 119.71 406.94 116.94
  Q 417.27 113.60 431.12 112.18
  C 488.90 106.24 542.10 105.04 607.50 104.31
  Q 639.58 103.96 675.27 105.19
  C 711.65 106.44 746.87 109.86 781.83 117.40
  Q 787.24 118.57 792.25 120.43
  Q 798.50 122.76 800.61 128.71
  A 2.71 2.70 -11.1 0 0 803.30 130.51
  C 807.39 130.29 813.25 129.41 816.51 127.04
  A 1.76 1.75 51.9 0 0 816.81 124.48
  Q 814.42 121.66 810.39 119.61
  Q 801.54 115.11 789.52 112.46
  Q 762.47 106.51 729.99 103.56
  Q 676.69 98.70 625.00 98.72
  Q 594.82 98.73 555.01 100.27
  Q 488.32 102.85 472.26 103.80
  Q 433.90 106.07 407.28 109.87
  Q 392.27 112.01 379.58 120.76
  A 0.13 0.13 0.0 0 0 379.60 120.98
  Z
  M 795.34 130.31
  A 2.30 2.23 52.8 0 0 795.71 127.27
  C 793.73 124.40 787.63 122.69 784.24 121.78
  C 750.66 112.74 718.12 110.01 681.25 108.49
  C 643.67 106.93 612.01 106.40 574.77 107.44
  C 530.48 108.67 482.94 109.67 437.75 114.50
  Q 427.50 115.60 416.91 117.66
  C 412.96 118.44 405.61 119.78 405.20 124.12
  A 1.63 1.62 23.4 0 0 405.75 125.50
  Q 408.99 128.32 412.29 129.00
  C 431.94 133.05 450.29 134.05 475.32 135.50
  Q 543.19 139.43 606.52 141.27
  Q 637.22 142.16 665.60 141.38
  Q 699.39 140.46 724.61 138.88
  C 739.89 137.92 761.16 136.03 775.17 135.13
  Q 781.39 134.72 789.72 132.97
  Q 793.00 132.28 795.34 130.31
  Z
  M 819.45 134.24
  Q 801.48 139.42 778.50 141.52
  Q 719.14 146.96 657.99 148.14
  Q 624.31 148.79 596.98 147.88
  Q 566.56 146.86 535.08 145.11
  C 499.76 143.15 464.10 142.52 429.27 137.94
  Q 410.33 135.45 397.39 131.31
  Q 389.09 128.66 378.64 124.93
  A 0.44 0.44 0.0 0 0 378.05 125.29
  Q 375.95 141.36 376.91 157.76
  C 377.39 165.84 377.88 174.29 386.59 177.96
  Q 392.67 180.53 399.54 181.70
  C 453.92 191.01 510.83 193.88 565.25 194.94
  Q 655.36 196.68 746.49 188.38
  Q 783.92 184.98 819.47 176.01
  A 0.75 0.75 0.0 0 0 820.04 175.28
  L 820.04 134.68
  A 0.46 0.46 0.0 0 0 819.45 134.24
  Z
  M 332.53 271.12
  A 0.95 0.95 0.0 0 0 333.45 272.32
  C 336.43 272.32 339.83 269.36 343.60 266.48
  C 355.83 257.14 362.56 246.68 359.99 230.29
  Q 358.59 221.36 355.31 210.54
  C 353.20 203.59 352.25 196.39 354.29 189.80
  Q 355.14 187.06 357.42 186.21
  C 360.76 184.97 365.18 183.54 367.30 180.51
  A 1.44 1.43 -48.8 0 0 367.19 178.73
  C 365.88 177.28 364.68 176.80 362.57 177.39
  Q 357.05 178.91 356.41 179.23
  C 344.77 185.27 346.11 198.29 348.23 209.26
  C 350.00 218.40 352.01 226.80 351.17 235.00
  C 350.27 243.79 347.26 250.85 341.28 258.02
  Q 338.62 261.21 334.59 266.83
  Q 333.18 268.81 332.53 271.12
  Z
  M 374.33 178.99
  Q 375.09 183.94 379.39 186.34
  C 392.14 193.45 407.01 196.07 421.58 197.63
  Q 486.61 204.61 553.76 205.92
  Q 618.09 207.18 683.50 204.40
  Q 710.96 203.23 741.51 200.04
  Q 776.65 196.37 804.67 190.41
  C 812.61 188.72 821.75 186.24 828.68 181.30
  A 2.31 2.30 -22.4 0 0 829.62 179.07
  L 829.54 178.52
  A 1.48 1.48 0.0 0 0 827.38 177.45
  Q 813.80 184.75 798.01 188.33
  Q 766.18 195.56 734.25 197.71
  Q 613.71 205.82 492.50 198.67
  C 462.57 196.90 433.79 193.07 403.49 189.04
  Q 394.34 187.82 388.49 186.00
  C 382.90 184.27 379.52 180.86 374.94 178.55
  A 0.43 0.42 9.0 0 0 374.33 178.99
  Z
  M 825.89 203.40
  Q 825.68 197.84 824.15 192.86
  A 1.08 1.08 0.0 0 0 822.81 192.15
  Q 795.12 200.57 766.00 204.29
  C 714.64 210.87 660.50 212.84 608.75 212.57
  Q 587.80 212.45 555.25 212.21
  Q 498.00 211.78 443.75 206.51
  Q 411.10 203.34 385.99 197.06
  C 381.79 196.01 378.88 195.15 375.69 196.81
  A 2.37 2.37 0.0 0 0 374.65 199.95
  Q 377.30 205.44 383.56 206.75
  C 436.24 217.78 488.77 222.35 544.26 225.42
  Q 639.57 230.68 734.50 222.61
  Q 755.07 220.86 769.50 218.18
  Q 797.41 213.01 825.71 203.65
  A 0.26 0.26 0.0 0 0 825.89 203.40
  Z
  M 375.77 212.34
  C 376.18 216.72 377.36 221.67 381.20 223.82
  C 394.14 231.06 408.04 233.69 423.56 235.91
  Q 478.70 243.80 532.75 245.36
  C 578.91 246.69 624.21 246.01 666.50 245.25
  Q 708.17 244.50 752.00 239.24
  Q 777.90 236.14 807.94 229.42
  Q 815.46 227.74 821.19 225.45
  C 827.53 222.92 833.00 219.30 831.04 211.43
  A 1.37 1.37 0.0 0 0 829.75 210.39
  Q 829.07 210.37 828.55 210.55
  C 785.23 225.42 740.91 230.86 694.50 232.47
  Q 661.84 233.60 623.17 233.66
  Q 581.66 233.72 551.84 232.31
  Q 494.71 229.61 438.25 223.41
  Q 418.87 221.28 399.07 216.85
  Q 377.03 211.91 376.29 211.84
  A 0.47 0.46 0.6 0 0 375.77 212.34
  Z
  M 376.59 229.88
  Q 380.30 237.67 388.88 240.96
  Q 400.41 245.39 413.27 247.99
  Q 436.07 252.62 466.99 256.21
  Q 544.20 265.17 620.80 262.87
  C 665.33 261.54 706.47 258.43 754.49 254.89
  Q 782.46 252.83 803.59 248.33
  C 811.10 246.74 821.44 244.14 827.46 238.83
  A 1.92 1.87 -16.6 0 0 828.08 237.72
  L 829.15 231.18
  A 0.53 0.53 0.0 0 0 828.45 230.59
  Q 800.59 240.17 772.80 244.34
  C 711.07 253.60 658.71 253.42 585.00 253.59
  Q 551.95 253.66 524.50 252.67
  C 487.08 251.31 451.45 248.10 416.00 241.60
  Q 403.20 239.25 391.50 235.82
  Q 386.87 234.47 377.02 229.46
  A 0.32 0.32 0.0 0 0 376.59 229.88
  Z
  M 384.27 247.06
  C 381.10 253.93 377.25 262.14 373.05 269.56
  C 364.06 285.46 357.25 296.83 351.93 311.60
  Q 348.55 320.98 346.88 333.29
  C 343.70 356.75 344.60 382.04 345.27 404.82
  Q 345.63 417.09 344.78 439.66
  C 343.79 465.84 343.02 484.31 343.03 505.50
  Q 343.05 521.55 343.93 631.25
  Q 344.38 687.60 350.30 739.00
  Q 353.36 765.58 355.08 784.69
  Q 355.88 793.55 358.09 805.39
  Q 361.77 825.06 375.08 838.66
  C 387.60 851.45 403.94 860.21 420.53 867.73
  C 452.89 882.39 485.78 893.16 519.55 895.87
  Q 568.34 899.78 620.00 898.49
  Q 656.09 897.59 691.00 893.28
  C 722.92 889.34 754.38 882.64 784.18 870.92
  Q 803.23 863.43 819.16 851.92
  C 833.75 841.38 844.31 827.08 848.21 809.48
  Q 850.35 799.79 851.06 788.76
  C 853.47 751.21 853.39 712.98 854.89 674.84
  Q 857.80 600.52 860.30 516.91
  C 861.16 488.04 861.06 462.50 860.70 437.25
  C 860.56 427.53 860.44 412.27 860.97 399.93
  C 861.64 384.26 862.26 366.99 860.73 350.75
  C 858.39 326.08 849.07 302.82 835.89 281.11
  Q 827.95 268.05 817.55 252.67
  A 0.84 0.83 -22.5 0 0 816.69 252.32
  Q 783.34 259.02 747.44 262.32
  Q 660.40 270.33 570.50 270.02
  Q 505.96 269.80 440.48 259.59
  Q 410.93 254.99 384.66 246.88
  A 0.33 0.33 0.0 0 0 384.27 247.06
  Z"
/>
<path fill="#000000" d="
  M 438.51 280.01
  A 0.57 0.57 0.0 0 1 438.76 280.88
  Q 437.58 282.42 435.87 283.37
  Q 428.64 287.42 427.36 288.11
  A 6.30 6.23 6.9 0 0 425.67 289.42
  C 419.73 295.87 416.98 304.95 414.24 313.78
  C 414.06 314.37 413.47 315.00 412.83 315.16
  A 0.56 0.55 -7.6 0 1 412.14 314.64
  Q 412.02 311.46 412.82 308.55
  C 416.42 295.49 423.39 284.94 436.02 280.05
  Q 437.31 279.55 438.51 280.01
  Z"
/>
<path fill="#000000" d="
  M 398.27 379.49
  L 395.03 378.94
  C 396.18 369.25 398.56 361.09 401.90 348.59
  C 403.32 343.28 404.43 338.70 407.45 334.08
  A 0.51 0.51 0.0 0 1 408.39 334.34
  Q 408.48 338.50 406.93 343.27
  Q 401.14 361.00 398.27 379.49
  Z"
/>
<path fill="#3f3d3e" d="
  M 398.27 379.49
  Q 395.21 410.67 395.61 438.50
  Q 396.08 471.45 396.65 509.25
  Q 396.88 524.04 396.78 529.75
  Q 395.37 608.98 396.44 716.79
  Q 396.67 739.92 397.82 753.29
  Q 398.64 762.83 398.89 774.29
  Q 398.94 776.58 398.16 778.24
  A 0.96 0.96 0.0 0 1 396.37 778.10
  Q 394.56 771.80 393.87 763.33
  Q 392.41 745.42 392.00 726.00
  C 390.53 657.46 391.72 589.64 392.97 517.08
  C 393.54 483.93 391.23 450.30 391.68 423.50
  C 391.95 407.17 391.91 393.06 395.03 378.94
  L 398.27 379.49
  Z"
/>
<path fill="#000000" d="
  M 403.93 811.92
  L 407.78 813.21
  C 403.29 817.36 399.05 822.40 399.61 828.99
  C 400.55 839.87 407.51 846.62 416.81 851.43
  Q 424.76 855.54 434.45 858.28
  C 467.49 867.62 501.00 872.91 535.00 875.65
  Q 617.94 882.34 701.24 876.99
  C 729.55 875.17 755.21 869.81 780.86 860.10
  C 793.90 855.16 813.22 845.91 811.31 828.74
  C 809.73 814.56 793.82 804.85 781.78 800.71
  Q 768.44 796.12 753.71 793.85
  Q 723.64 789.21 703.36 786.63
  Q 643.98 779.08 585.23 778.38
  Q 559.43 778.07 544.28 778.70
  C 503.16 780.42 463.01 788.36 424.59 803.55
  Q 423.57 802.00 422.27 801.17
  Q 432.62 796.62 443.40 793.19
  Q 476.79 782.55 508.24 778.27
  C 533.22 774.87 560.38 774.77 586.63 774.89
  Q 638.93 775.14 692.25 781.51
  Q 718.60 784.66 752.91 790.15
  C 768.59 792.65 786.63 796.61 799.95 806.02
  C 810.81 813.69 818.89 826.06 813.69 839.27
  C 810.16 848.22 801.40 854.68 793.04 858.55
  C 763.11 872.41 732.54 879.28 699.50 881.16
  Q 624.72 885.40 549.50 881.21
  Q 512.70 879.15 476.41 873.10
  Q 450.58 868.79 426.52 860.25
  C 409.16 854.09 391.76 844.00 397.52 822.03
  Q 399.10 816.00 403.93 811.92
  Z"
/>
<path fill="#3f3d3e" d="
  M 422.27 801.17
  Q 423.57 802.00 424.59 803.55
  Q 415.56 807.62 407.78 813.21
  L 403.93 811.92
  C 408.33 807.14 416.24 803.42 422.27 801.17
  Z"
/>
<path fill="#000000" d="
  M 640.29 843.84
  L 640.04 847.27
  Q 637.80 847.50 635.50 847.54
  Q 603.44 848.11 572.95 845.34
  Q 564.21 844.54 556.80 842.96
  Q 553.62 842.28 551.19 840.93
  A 0.33 0.33 0.0 0 1 551.26 840.32
  Q 551.97 840.13 553.50 839.99
  Q 560.69 839.33 571.23 840.61
  Q 594.41 843.43 616.26 844.55
  Q 628.31 845.17 640.29 843.84
  Z"
/>
<path fill="#3f3d3e" d="
  M 640.04 847.27
  L 640.29 843.84
  Q 648.26 842.87 656.25 842.21
  Q 659.72 841.92 663.70 842.47
  A 0.76 0.76 0.0 0 1 664.06 843.82
  C 662.29 845.19 660.05 846.07 657.61 846.39
  Q 648.89 847.54 640.04 847.27
  Z"
/>
</svg>
